<mxfile host="65bd71144e" scale="3" border="0">
    <diagram id="qgYcY0n3wP_RTE-sAW_c" name="Page-1">
        <mxGraphModel dx="543" dy="448" grid="1" gridSize="10" guides="1" tooltips="1" connect="1" arrows="1" fold="1" page="1" pageScale="1" pageWidth="827" pageHeight="1169" math="0" shadow="0">
            <root>
                <mxCell id="0"/>
                <mxCell id="1" parent="0"/>
                <mxCell id="cWMBWz1hI2QJN9EcXbRC-1" value="" style="rounded=1;whiteSpace=wrap;html=1;" parent="1" vertex="1">
                    <mxGeometry x="166" y="160" width="495" height="380" as="geometry"/>
                </mxCell>
                <mxCell id="cWMBWz1hI2QJN9EcXbRC-2" value="" style="sketch=0;aspect=fixed;html=1;points=[];align=center;image;fontSize=12;image=img/lib/mscae/Docker.svg;" parent="1" vertex="1">
                    <mxGeometry x="190" y="180" width="48.78" height="40" as="geometry"/>
                </mxCell>
                <mxCell id="cWMBWz1hI2QJN9EcXbRC-46" style="edgeStyle=orthogonalEdgeStyle;rounded=0;orthogonalLoop=1;jettySize=auto;html=1;exitX=0.5;exitY=0;exitDx=0;exitDy=0;entryX=0.5;entryY=1;entryDx=0;entryDy=0;" parent="1" source="cWMBWz1hI2QJN9EcXbRC-3" target="cWMBWz1hI2QJN9EcXbRC-15" edge="1">
                    <mxGeometry relative="1" as="geometry"/>
                </mxCell>
                <mxCell id="cWMBWz1hI2QJN9EcXbRC-3" value="" style="rounded=1;whiteSpace=wrap;html=1;" parent="1" vertex="1">
                    <mxGeometry x="217.88" y="350" width="110" height="70" as="geometry"/>
                </mxCell>
                <mxCell id="cWMBWz1hI2QJN9EcXbRC-4" value="" style="rounded=1;whiteSpace=wrap;html=1;" parent="1" vertex="1">
                    <mxGeometry x="429.88" y="210" width="110" height="70" as="geometry"/>
                </mxCell>
                <mxCell id="cWMBWz1hI2QJN9EcXbRC-5" value="" style="rounded=1;whiteSpace=wrap;html=1;" parent="1" vertex="1">
                    <mxGeometry x="364" y="350" width="110" height="70" as="geometry"/>
                </mxCell>
                <mxCell id="cWMBWz1hI2QJN9EcXbRC-6" value="" style="rounded=1;whiteSpace=wrap;html=1;" parent="1" vertex="1">
                    <mxGeometry x="509.82" y="350" width="110" height="70" as="geometry"/>
                </mxCell>
                <mxCell id="cWMBWz1hI2QJN9EcXbRC-7" value="" style="rounded=1;whiteSpace=wrap;html=1;" parent="1" vertex="1">
                    <mxGeometry x="288" y="210" width="110" height="70" as="geometry"/>
                </mxCell>
                <mxCell id="cWMBWz1hI2QJN9EcXbRC-42" style="edgeStyle=orthogonalEdgeStyle;rounded=0;orthogonalLoop=1;jettySize=auto;html=1;exitX=0.5;exitY=1;exitDx=0;exitDy=0;exitPerimeter=0;entryX=0.5;entryY=0;entryDx=0;entryDy=0;" parent="1" source="cWMBWz1hI2QJN9EcXbRC-9" target="cWMBWz1hI2QJN9EcXbRC-7" edge="1">
                    <mxGeometry relative="1" as="geometry">
                        <Array as="points">
                            <mxPoint x="379" y="180"/>
                            <mxPoint x="343" y="180"/>
                        </Array>
                    </mxGeometry>
                </mxCell>
                <mxCell id="cWMBWz1hI2QJN9EcXbRC-9" value="" style="verticalLabelPosition=bottom;html=1;verticalAlign=top;align=center;strokeColor=none;fillColor=#00BEF2;shape=mxgraph.azure.mobile;pointerEvents=1;" parent="1" vertex="1">
                    <mxGeometry x="364" y="80" width="30" height="45" as="geometry"/>
                </mxCell>
                <mxCell id="cWMBWz1hI2QJN9EcXbRC-10" value="" style="verticalLabelPosition=bottom;html=1;verticalAlign=top;align=center;strokeColor=none;fillColor=#00BEF2;shape=mxgraph.azure.computer;pointerEvents=1;" parent="1" vertex="1">
                    <mxGeometry x="424" y="80" width="50" height="45" as="geometry"/>
                </mxCell>
                <mxCell id="cWMBWz1hI2QJN9EcXbRC-11" value="Clients" style="text;html=1;strokeColor=none;fillColor=none;align=center;verticalAlign=middle;whiteSpace=wrap;rounded=0;" parent="1" vertex="1">
                    <mxGeometry x="382" y="130" width="60" height="30" as="geometry"/>
                </mxCell>
                <mxCell id="cWMBWz1hI2QJN9EcXbRC-14" value="" style="aspect=fixed;html=1;points=[];align=center;image;fontSize=12;image=img/lib/azure2/compute/Azure_Spring_Cloud.svg;" parent="1" vertex="1">
                    <mxGeometry x="306" y="220" width="31.88" height="30" as="geometry"/>
                </mxCell>
                <mxCell id="cWMBWz1hI2QJN9EcXbRC-47" style="edgeStyle=orthogonalEdgeStyle;rounded=0;orthogonalLoop=1;jettySize=auto;html=1;exitX=0.5;exitY=1;exitDx=0;exitDy=0;entryX=0.5;entryY=0;entryDx=0;entryDy=0;" parent="1" source="cWMBWz1hI2QJN9EcXbRC-15" target="cWMBWz1hI2QJN9EcXbRC-3" edge="1">
                    <mxGeometry relative="1" as="geometry"/>
                </mxCell>
                <mxCell id="cWMBWz1hI2QJN9EcXbRC-48" style="edgeStyle=orthogonalEdgeStyle;rounded=0;orthogonalLoop=1;jettySize=auto;html=1;exitX=0.5;exitY=1;exitDx=0;exitDy=0;" parent="1" source="cWMBWz1hI2QJN9EcXbRC-15" target="cWMBWz1hI2QJN9EcXbRC-5" edge="1">
                    <mxGeometry relative="1" as="geometry"/>
                </mxCell>
                <mxCell id="cWMBWz1hI2QJN9EcXbRC-49" style="edgeStyle=orthogonalEdgeStyle;rounded=0;orthogonalLoop=1;jettySize=auto;html=1;exitX=0.5;exitY=1;exitDx=0;exitDy=0;" parent="1" source="cWMBWz1hI2QJN9EcXbRC-15" target="cWMBWz1hI2QJN9EcXbRC-6" edge="1">
                    <mxGeometry relative="1" as="geometry"/>
                </mxCell>
                <mxCell id="cWMBWz1hI2QJN9EcXbRC-15" value="API Gateway" style="text;html=1;strokeColor=none;fillColor=none;align=center;verticalAlign=middle;whiteSpace=wrap;rounded=0;" parent="1" vertex="1">
                    <mxGeometry x="298" y="250" width="90" height="30" as="geometry"/>
                </mxCell>
                <mxCell id="cWMBWz1hI2QJN9EcXbRC-16" value="" style="aspect=fixed;html=1;points=[];align=center;image;fontSize=12;image=img/lib/azure2/compute/Azure_Spring_Cloud.svg;" parent="1" vertex="1">
                    <mxGeometry x="234.78" y="360" width="31.88" height="30" as="geometry"/>
                </mxCell>
                <mxCell id="cWMBWz1hI2QJN9EcXbRC-17" value="" style="aspect=fixed;html=1;points=[];align=center;image;fontSize=12;image=img/lib/azure2/compute/Azure_Spring_Cloud.svg;" parent="1" vertex="1">
                    <mxGeometry x="382" y="360" width="31.88" height="30" as="geometry"/>
                </mxCell>
                <mxCell id="cWMBWz1hI2QJN9EcXbRC-18" value="" style="aspect=fixed;html=1;points=[];align=center;image;fontSize=12;image=img/lib/azure2/compute/Azure_Spring_Cloud.svg;" parent="1" vertex="1">
                    <mxGeometry x="447.88" y="220" width="31.88" height="30" as="geometry"/>
                </mxCell>
                <mxCell id="cWMBWz1hI2QJN9EcXbRC-19" value="" style="aspect=fixed;html=1;points=[];align=center;image;fontSize=12;image=img/lib/azure2/compute/Azure_Spring_Cloud.svg;" parent="1" vertex="1">
                    <mxGeometry x="529.82" y="360" width="31.88" height="30" as="geometry"/>
                </mxCell>
                <mxCell id="cWMBWz1hI2QJN9EcXbRC-20" value="Aggregator" style="text;html=1;strokeColor=none;fillColor=none;align=center;verticalAlign=middle;whiteSpace=wrap;rounded=0;" parent="1" vertex="1">
                    <mxGeometry x="439.88" y="250" width="90" height="30" as="geometry"/>
                </mxCell>
                <mxCell id="cWMBWz1hI2QJN9EcXbRC-21" value="" style="endArrow=classic;startArrow=classic;html=1;rounded=0;entryX=1;entryY=0.5;entryDx=0;entryDy=0;exitX=0;exitY=0.5;exitDx=0;exitDy=0;" parent="1" source="cWMBWz1hI2QJN9EcXbRC-4" target="cWMBWz1hI2QJN9EcXbRC-7" edge="1">
                    <mxGeometry width="50" height="50" relative="1" as="geometry">
                        <mxPoint x="430" y="300" as="sourcePoint"/>
                        <mxPoint x="455" y="270" as="targetPoint"/>
                    </mxGeometry>
                </mxCell>
                <mxCell id="9qFrks6LTLOdzD0h3Oyn-13" style="edgeStyle=orthogonalEdgeStyle;rounded=0;orthogonalLoop=1;jettySize=auto;html=1;exitX=0.5;exitY=1;exitDx=0;exitDy=0;entryX=0.5;entryY=0;entryDx=0;entryDy=0;entryPerimeter=0;" parent="1" source="cWMBWz1hI2QJN9EcXbRC-29" target="9qFrks6LTLOdzD0h3Oyn-11" edge="1">
                    <mxGeometry relative="1" as="geometry"/>
                </mxCell>
                <mxCell id="cWMBWz1hI2QJN9EcXbRC-29" value="Cinema (Cineworld)" style="text;html=1;strokeColor=none;fillColor=none;align=center;verticalAlign=middle;whiteSpace=wrap;rounded=0;" parent="1" vertex="1">
                    <mxGeometry x="207.88" y="390" width="130" height="30" as="geometry"/>
                </mxCell>
                <mxCell id="9qFrks6LTLOdzD0h3Oyn-32" style="edgeStyle=orthogonalEdgeStyle;rounded=0;orthogonalLoop=1;jettySize=auto;html=1;exitX=0.5;exitY=1;exitDx=0;exitDy=0;" parent="1" source="cWMBWz1hI2QJN9EcXbRC-32" target="9qFrks6LTLOdzD0h3Oyn-31" edge="1">
                    <mxGeometry relative="1" as="geometry"/>
                </mxCell>
                <mxCell id="cWMBWz1hI2QJN9EcXbRC-32" value="Cinema (Dundrum)" style="text;html=1;strokeColor=none;fillColor=none;align=center;verticalAlign=middle;whiteSpace=wrap;rounded=0;" parent="1" vertex="1">
                    <mxGeometry x="354" y="390" width="130" height="30" as="geometry"/>
                </mxCell>
                <mxCell id="9qFrks6LTLOdzD0h3Oyn-36" style="edgeStyle=orthogonalEdgeStyle;rounded=0;orthogonalLoop=1;jettySize=auto;html=1;exitX=0.5;exitY=1;exitDx=0;exitDy=0;" parent="1" source="cWMBWz1hI2QJN9EcXbRC-33" target="9qFrks6LTLOdzD0h3Oyn-35" edge="1">
                    <mxGeometry relative="1" as="geometry"/>
                </mxCell>
                <mxCell id="cWMBWz1hI2QJN9EcXbRC-33" value="Cinema (UCD)" style="text;html=1;strokeColor=none;fillColor=none;align=center;verticalAlign=middle;whiteSpace=wrap;rounded=0;" parent="1" vertex="1">
                    <mxGeometry x="499.82" y="390" width="130" height="30" as="geometry"/>
                </mxCell>
                <mxCell id="cWMBWz1hI2QJN9EcXbRC-34" value="" style="dashed=0;outlineConnect=0;html=1;align=center;labelPosition=center;verticalLabelPosition=bottom;verticalAlign=top;shape=mxgraph.weblogos.java" parent="1" vertex="1">
                    <mxGeometry x="287.88" y="355" width="20" height="40" as="geometry"/>
                </mxCell>
                <mxCell id="cWMBWz1hI2QJN9EcXbRC-35" value="" style="dashed=0;outlineConnect=0;html=1;align=center;labelPosition=center;verticalLabelPosition=bottom;verticalAlign=top;shape=mxgraph.weblogos.java" parent="1" vertex="1">
                    <mxGeometry x="433.94" y="355" width="20" height="40" as="geometry"/>
                </mxCell>
                <mxCell id="cWMBWz1hI2QJN9EcXbRC-36" value="" style="dashed=0;outlineConnect=0;html=1;align=center;labelPosition=center;verticalLabelPosition=bottom;verticalAlign=top;shape=mxgraph.weblogos.java" parent="1" vertex="1">
                    <mxGeometry x="569.82" y="355" width="20" height="40" as="geometry"/>
                </mxCell>
                <mxCell id="cWMBWz1hI2QJN9EcXbRC-38" value="" style="dashed=0;outlineConnect=0;html=1;align=center;labelPosition=center;verticalLabelPosition=bottom;verticalAlign=top;shape=mxgraph.weblogos.java" parent="1" vertex="1">
                    <mxGeometry x="499.82000000000005" y="215" width="20" height="40" as="geometry"/>
                </mxCell>
                <mxCell id="cWMBWz1hI2QJN9EcXbRC-40" value="" style="dashed=0;outlineConnect=0;html=1;align=center;labelPosition=center;verticalLabelPosition=bottom;verticalAlign=top;shape=mxgraph.weblogos.java" parent="1" vertex="1">
                    <mxGeometry x="353" y="215" width="20" height="40" as="geometry"/>
                </mxCell>
                <mxCell id="2" style="edgeStyle=none;html=1;exitX=0.5;exitY=0;exitDx=0;exitDy=0;exitPerimeter=0;entryX=0.5;entryY=1;entryDx=0;entryDy=0;" parent="1" source="9qFrks6LTLOdzD0h3Oyn-11" target="cWMBWz1hI2QJN9EcXbRC-29" edge="1">
                    <mxGeometry relative="1" as="geometry"/>
                </mxCell>
                <mxCell id="9qFrks6LTLOdzD0h3Oyn-11" value="" style="shape=cylinder3;whiteSpace=wrap;html=1;boundedLbl=1;backgroundOutline=1;size=15;" parent="1" vertex="1">
                    <mxGeometry x="238.78" y="460" width="70" height="60" as="geometry"/>
                </mxCell>
                <mxCell id="9qFrks6LTLOdzD0h3Oyn-8" value="MongoDB" style="text;html=1;strokeColor=none;fillColor=none;align=center;verticalAlign=middle;whiteSpace=wrap;rounded=0;" parent="1" vertex="1">
                    <mxGeometry x="243.88" y="495" width="62.12" height="10" as="geometry"/>
                </mxCell>
                <mxCell id="9qFrks6LTLOdzD0h3Oyn-10" value="" style="dashed=0;outlineConnect=0;html=1;align=center;labelPosition=center;verticalLabelPosition=bottom;verticalAlign=top;shape=mxgraph.weblogos.mongodb" parent="1" vertex="1">
                    <mxGeometry x="265.2" y="460" width="15.36" height="30" as="geometry"/>
                </mxCell>
                <mxCell id="3" style="edgeStyle=none;html=1;exitX=0.5;exitY=0;exitDx=0;exitDy=0;exitPerimeter=0;entryX=0.5;entryY=1;entryDx=0;entryDy=0;" parent="1" source="9qFrks6LTLOdzD0h3Oyn-29" target="cWMBWz1hI2QJN9EcXbRC-32" edge="1">
                    <mxGeometry relative="1" as="geometry"/>
                </mxCell>
                <mxCell id="9qFrks6LTLOdzD0h3Oyn-29" value="" style="shape=cylinder3;whiteSpace=wrap;html=1;boundedLbl=1;backgroundOutline=1;size=15;" parent="1" vertex="1">
                    <mxGeometry x="383.94" y="460" width="70" height="60" as="geometry"/>
                </mxCell>
                <mxCell id="9qFrks6LTLOdzD0h3Oyn-30" value="MongoDB" style="text;html=1;strokeColor=none;fillColor=none;align=center;verticalAlign=middle;whiteSpace=wrap;rounded=0;" parent="1" vertex="1">
                    <mxGeometry x="389.04" y="495" width="62.12" height="10" as="geometry"/>
                </mxCell>
                <mxCell id="9qFrks6LTLOdzD0h3Oyn-31" value="" style="dashed=0;outlineConnect=0;html=1;align=center;labelPosition=center;verticalLabelPosition=bottom;verticalAlign=top;shape=mxgraph.weblogos.mongodb" parent="1" vertex="1">
                    <mxGeometry x="410.35999999999996" y="460" width="15.36" height="30" as="geometry"/>
                </mxCell>
                <mxCell id="4" style="edgeStyle=none;html=1;exitX=0.5;exitY=0;exitDx=0;exitDy=0;exitPerimeter=0;entryX=0.5;entryY=1;entryDx=0;entryDy=0;" parent="1" source="9qFrks6LTLOdzD0h3Oyn-33" target="cWMBWz1hI2QJN9EcXbRC-33" edge="1">
                    <mxGeometry relative="1" as="geometry"/>
                </mxCell>
                <mxCell id="9qFrks6LTLOdzD0h3Oyn-33" value="" style="shape=cylinder3;whiteSpace=wrap;html=1;boundedLbl=1;backgroundOutline=1;size=15;" parent="1" vertex="1">
                    <mxGeometry x="529.8799999999999" y="460" width="70" height="60" as="geometry"/>
                </mxCell>
                <mxCell id="9qFrks6LTLOdzD0h3Oyn-34" value="MongoDB" style="text;html=1;strokeColor=none;fillColor=none;align=center;verticalAlign=middle;whiteSpace=wrap;rounded=0;" parent="1" vertex="1">
                    <mxGeometry x="534.98" y="495" width="62.12" height="10" as="geometry"/>
                </mxCell>
                <mxCell id="9qFrks6LTLOdzD0h3Oyn-35" value="" style="dashed=0;outlineConnect=0;html=1;align=center;labelPosition=center;verticalLabelPosition=bottom;verticalAlign=top;shape=mxgraph.weblogos.mongodb" parent="1" vertex="1">
                    <mxGeometry x="556.3" y="460" width="15.36" height="30" as="geometry"/>
                </mxCell>
                <mxCell id="12" style="edgeStyle=orthogonalEdgeStyle;rounded=0;orthogonalLoop=1;jettySize=auto;html=1;entryX=0.5;entryY=0;entryDx=0;entryDy=0;exitX=0.5;exitY=1;exitDx=0;exitDy=0;exitPerimeter=0;" parent="1" source="cWMBWz1hI2QJN9EcXbRC-10" edge="1">
                    <mxGeometry relative="1" as="geometry">
                        <Array as="points">
                            <mxPoint x="450" y="125"/>
                            <mxPoint x="450" y="180"/>
                            <mxPoint x="343" y="180"/>
                        </Array>
                        <mxPoint x="440" y="140" as="sourcePoint"/>
                        <mxPoint x="342.88" y="210" as="targetPoint"/>
                    </mxGeometry>
                </mxCell>
            </root>
        </mxGraphModel>
    </diagram>
</mxfile>